<?xml version="1.0" standalone="no"?>
<!DOCTYPE svg PUBLIC "-//W3C//DTD SVG 20010904//EN"
 "http://www.w3.org/TR/2001/REC-SVG-20010904/DTD/svg10.dtd">
<svg version="1.0" xmlns="http://www.w3.org/2000/svg"
 width="700.000000pt" height="700.000000pt" viewBox="0 0 700.000000 700.000000"
 preserveAspectRatio="xMidYMid meet">
<metadata>
Created by potrace 1.14, written by Peter Selinger 2001-2017
</metadata>
<g transform="translate(0.000000,700.000000) scale(0.100000,-0.100000)"
fill="#000000" stroke="none">
<path d="M1026 5709 c-36 -10 -82 -53 -94 -89 -6 -16 -9 -408 -8 -971 l1 -945
25 -37 c30 -44 69 -62 130 -61 45 0 149 60 1033 590 27 16 61 36 75 45 15 9
130 78 257 153 126 75 242 149 257 163 24 23 40 61 43 103 1 22 -23 81 -42
102 -12 14 -129 89 -168 108 -6 3 -60 35 -120 71 -203 122 -680 406 -715 426
-19 11 -109 65 -200 120 -390 235 -406 243 -474 222z m565 -629 c193 -115 354
-210 356 -210 3 0 19 -10 36 -22 18 -13 48 -32 68 -43 96 -53 239 -141 239
-146 0 -4 -33 -26 -72 -49 -40 -24 -271 -161 -513 -305 -242 -144 -449 -267
-460 -273 l-21 -11 0 635 c0 349 4 634 8 634 4 0 166 -94 359 -210z"/>
<path d="M3167 5709 c-38 -10 -67 -32 -89 -68 -21 -33 -22 -46 -22 -375 -1
-323 0 -343 19 -375 11 -19 33 -43 48 -55 l28 -21 1406 -3 1405 -2 39 22 c25
14 46 37 59 62 18 38 19 63 19 370 0 191 -5 340 -10 355 -13 34 -47 70 -79 84
-27 12 -2779 18 -2823 6z m2608 -444 l0 -150 -1207 -2 -1208 -2 -1 42 c-1 105
1 249 5 255 2 4 546 7 1208 7 l1204 0 -1 -150z"/>
<path d="M3160 4503 c-33 -13 -79 -56 -91 -86 -10 -24 -13 -111 -13 -367 0
-371 1 -375 66 -422 l33 -23 1412 0 c1410 0 1412 0 1439 21 15 11 37 33 48 48
20 27 21 40 21 381 0 341 -1 354 -21 381 -11 15 -33 37 -48 48 -27 21 -30 21
-1429 23 -771 1 -1409 -1 -1417 -4z m2615 -448 l0 -150 -1207 0 -1208 -1 0 31
c-1 16 -2 83 -3 148 -1 64 2 118 6 120 4 1 549 2 1210 2 l1202 0 0 -150z"/>
<path d="M1015 3276 c-36 -16 -70 -52 -84 -87 -5 -16 -9 -163 -8 -367 2 -327
3 -342 23 -368 11 -15 33 -37 48 -48 l27 -21 2479 0 2479 0 27 21 c15 11 37
33 48 48 20 26 21 42 23 369 3 326 2 343 -18 384 -15 30 -32 47 -63 62 l-42
21 -2455 0 c-2023 -1 -2459 -3 -2484 -14z m4760 -441 l0 -150 -2265 -1 c-1246
0 -2270 1 -2276 3 -7 3 -10 54 -8 151 1 81 2 147 3 148 0 0 1024 0 2274 0
l2272 -1 0 -150z"/>
<path d="M1003 2049 c-30 -15 -48 -33 -62 -62 -19 -39 -20 -62 -20 -367 0
-224 4 -336 12 -359 7 -19 29 -48 50 -65 l39 -31 2465 -1 2465 -1 41 21 c23
12 50 34 61 49 20 27 21 43 23 370 3 323 2 343 -17 382 -13 26 -34 49 -59 63
l-39 22 -2458 0 -2459 0 -42 -21z m4773 -424 c1 -77 -1 -144 -3 -150 -2 -7
-767 -9 -2271 -8 -1247 0 -2270 1 -2273 2 -4 1 -5 291 0 298 0 1 1024 1 2274
0 l2272 -2 1 -140z"/>
</g>
</svg>
